HIERARCHY
ROOT Hips
{
	OFFSET -0.001795 -0.223333 0.028219
	CHANNELS 6 Xposition Yposition Zposition Zrotation Yrotation Xrotation 
	JOINT LeftUpLeg
	{
		OFFSET 0.069520 -0.091406 -0.006815
		CHANNELS 3 Zrotation Yrotation Xrotation
		JOINT LeftLeg
		{
			OFFSET 0.034277 -0.375199 -0.004496
			CHANNELS 3 Zrotation Yrotation Xrotation
			JOINT LeftFoot
			{
				OFFSET -0.013596 -0.397961 -0.043693
				CHANNELS 3 Zrotation Yrotation Xrotation
				JOINT LeftToe
				{
					OFFSET 0.026358 -0.055791 0.119288
					CHANNELS 3 Zrotation Yrotation Xrotation
					End Site
					{
						OFFSET 0.000000 0.000000 0.000000
					}
				}
			}
		}
	}
	JOINT RightUpLeg
	{
		OFFSET -0.067670 -0.090522 -0.004320
		CHANNELS 3 Zrotation Yrotation Xrotation
		JOINT RightLeg
		{
			OFFSET -0.038290 -0.382569 -0.008850
			CHANNELS 3 Zrotation Yrotation Xrotation
			JOINT RightFoot
			{
				OFFSET 0.015774 -0.398415 -0.042312
				CHANNELS 3 Zrotation Yrotation Xrotation
				JOINT RightToe
				{
					OFFSET -0.025372 -0.048144 0.123348
					CHANNELS 3 Zrotation Yrotation Xrotation
					End Site
					{
						OFFSET 0.000000 0.000000 0.000000
					}
				}
			}
		}
	}
	JOINT Spine
	{
		OFFSET -0.002533 0.108963 -0.026696
		CHANNELS 3 Zrotation Yrotation Xrotation
		JOINT Spine1
		{
			OFFSET 0.005487 0.135180 0.001092
			CHANNELS 3 Zrotation Yrotation Xrotation
			JOINT Spine2
			{
				OFFSET 0.001457 0.052922 0.025425
				CHANNELS 3 Zrotation Yrotation Xrotation
				JOINT Neck
				{
					OFFSET -0.002778 0.213870 -0.042857
					CHANNELS 3 Zrotation Yrotation Xrotation
					JOINT Head
					{
						OFFSET 0.005152 0.064970 0.051349
						CHANNELS 3 Zrotation Yrotation Xrotation
						End Site
						{
							OFFSET 0.000000 0.000000 0.000000
						}
					}
				}
				JOINT LeftShoulder
				{
					OFFSET 0.078845 0.121749 -0.034090
					CHANNELS 3 Zrotation Yrotation Xrotation
					JOINT LeftArm
					{
						OFFSET 0.090977 0.030469 -0.008868
						CHANNELS 3 Zrotation Yrotation Xrotation
						JOINT LeftForeArm
						{
							OFFSET 0.259612 -0.012772 -0.027456
							CHANNELS 3 Zrotation Yrotation Xrotation
							JOINT LeftHand
							{
								OFFSET 0.249234 0.008986 -0.001171
								CHANNELS 3 Zrotation Yrotation Xrotation
								End Site
								{
									OFFSET 0.000000 0.000000 0.000000
								}
							}
						}
					}
				}
				JOINT RightShoulder
				{
					OFFSET -0.081759 0.118833 -0.038615
					CHANNELS 3 Zrotation Yrotation Xrotation
					JOINT RightArm
					{
						OFFSET -0.096012 0.032551 -0.009143
						CHANNELS 3 Zrotation Yrotation Xrotation
						JOINT RightForeArm
						{
							OFFSET -0.253742 -0.013329 -0.021401
							CHANNELS 3 Zrotation Yrotation Xrotation
							JOINT RightHand
							{
								OFFSET -0.255298 0.007772 -0.005559
								CHANNELS 3 Zrotation Yrotation Xrotation
								End Site
								{
									OFFSET 0.000000 0.000000 0.000000
								}
							}
						}
					}
				}
			}
		}
	}
}
MOTION
Frames: 7
Frame Time: 0.050000
0.000000 0.940696 0.000000 -6.486362 -8.662209 3.097355 0.451846 0.984858 9.807591 1.558440 -0.696065 22.337972 -1.583868 3.467019 20.506663 0.000000 0.000000 0.000000 8.956801 5.303554 -27.366166 0.431421 1.448785 24.173121 -1.184562 -6.517629 6.897050 0.000000 0.000000 0.000000 10.640942 -2.217437 16.901796 -3.051308 1.062046 -24.696453 -2.594463 -1.216996 27.085943 8.285680 -7.220214 -7.527618 0.000000 0.000000 0.000000 -14.579831 -3.246843 2.235768 -47.643889 6.580026 -10.428226 -56.948158 -68.397459 47.889211 0.000000 0.000000 0.000000 28.631321 -9.200888 -10.554555 43.795955 -22.510405 -13.199376 35.811687 39.985499 13.926676 0.000000 0.000000 0.000000 
0.001727 0.956649 0.009797 -7.027845 -7.488568 5.067563 0.688750 1.034827 10.693116 3.017962 -1.245624 22.887297 -1.345960 5.263005 25.593944 0.000000 0.000000 0.000000 10.013984 5.517863 -27.714164 0.110062 1.406666 23.299217 -2.296458 -6.928827 2.237554 0.000000 0.000000 0.000000 11.346490 -1.888630 12.588099 -0.905966 0.614664 -24.614588 -3.932176 -4.564949 28.729923 6.317422 -5.716003 -9.875590 0.000000 0.000000 0.000000 -12.448833 1.007669 0.519846 -48.137646 4.315391 -9.694847 -65.347683 -71.820785 59.847794 0.000000 0.000000 0.000000 22.740954 -9.029253 -9.701012 48.445809 -23.812730 -15.477496 39.333911 40.195135 14.801820 0.000000 0.000000 0.000000 
0.003470 0.958083 0.019490 -6.325759 -8.390599 4.281563 0.607576 0.833221 8.572216 2.785155 -1.184876 33.307638 -2.567393 3.884442 26.353051 0.000000 0.000000 0.000000 10.445640 4.738988 -23.912215 -0.111796 1.798687 26.144366 -2.537312 -7.310424 1.825003 0.000000 0.000000 0.000000 10.016304 -1.492838 10.889418 -0.052434 0.371061 -23.917586 -3.032803 -3.414030 29.138235 6.024479 -5.340175 -10.911431 0.000000 0.000000 0.000000 -13.199423 -0.649452 1.356235 -45.765107 4.127471 -9.415530 -73.309189 -71.409215 66.279273 0.000000 0.000000 0.000000 19.143401 -10.456970 -9.132075 50.798592 -24.460769 -16.999408 43.550763 40.074535 16.533785 0.000000 0.000000 0.000000 
0.004777 0.941207 0.026512 -6.772844 -8.668765 3.454265 2.222987 0.370874 4.703652 3.116618 -1.213604 46.224124 -0.732556 5.220839 21.169985 0.000000 0.000000 0.000000 11.762498 4.321922 -21.092280 0.202962 2.275595 31.791537 -1.884892 -10.153377 13.576393 0.000000 0.000000 0.000000 10.303298 -1.464688 10.647259 0.392246 0.205373 -22.830928 -3.238326 -1.444385 29.152594 5.724500 -4.745911 -11.787688 0.000000 0.000000 0.000000 -13.605505 -0.827032 1.157525 -45.388631 3.496018 -9.156097 -69.877122 -72.214967 63.092132 0.000000 0.000000 0.000000 21.697955 -8.063892 -7.986085 50.021221 -21.359249 -15.383205 44.046773 43.112041 18.689216 0.000000 0.000000 0.000000 
0.005912 0.920205 0.027699 -6.279610 -8.266784 1.259545 3.351659 -0.076230 -1.390046 3.833400 -1.805771 56.056880 0.963607 6.206984 13.926997 0.000000 0.000000 0.000000 11.998893 2.624450 -13.738541 -1.134418 2.329883 28.004008 -2.834747 -13.973317 24.250552 0.000000 0.000000 0.000000 8.100799 -1.438393 13.008777 -0.587714 0.421303 -21.342134 0.659924 1.073645 27.311514 5.977235 -4.227646 -13.657217 0.000000 0.000000 0.000000 -18.331616 -2.526474 1.532641 -40.973201 2.746801 -8.026890 -57.249059 -74.343196 51.773073 0.000000 0.000000 0.000000 24.438928 -5.423149 -6.121072 48.995769 -14.440212 -12.295541 38.253956 48.845450 19.474209 0.000000 0.000000 0.000000 
0.008134 0.912133 0.023929 -5.094546 -9.263561 0.367906 5.500750 -0.331499 -10.837752 1.935863 -0.078803 59.466414 3.277624 8.682938 7.786535 0.000000 0.000000 0.000000 10.597700 0.934880 -6.373959 -2.210960 1.534420 16.648031 -9.013663 -22.436520 34.459683 0.000000 0.000000 0.000000 5.707972 -1.273502 15.162817 -0.830809 0.472529 -21.466819 2.712440 7.118652 26.332112 7.731092 -4.727413 -13.325233 0.000000 0.000000 0.000000 -18.112723 -3.962600 0.918807 -41.529768 4.274152 -8.150706 -43.203288 -72.207198 36.550532 0.000000 0.000000 0.000000 25.327196 -4.622988 -3.984200 49.338871 -6.894356 -9.841225 32.782135 55.486734 21.008022 0.000000 0.000000 0.000000 
0.012371 0.921263 0.020203 -3.714131 -10.009958 1.022732 4.956902 -0.548592 -20.141165 1.358351 0.263319 52.422852 4.293611 9.696834 4.071324 0.000000 0.000000 0.000000 8.448445 -0.662790 2.278926 -2.931045 0.501170 3.347307 -1.367759 -9.029439 12.580465 0.000000 0.000000 0.000000 3.303349 -0.972548 16.248731 -1.705296 0.739900 -23.515683 4.735140 12.234448 27.511572 9.283066 -5.123792 -13.941648 0.000000 0.000000 0.000000 -18.168961 -3.290044 -0.567221 -41.793544 6.578703 -8.671765 -34.416140 -67.663839 26.025748 0.000000 0.000000 0.000000 22.361087 -3.606647 -1.663817 53.656329 0.968665 -7.711575 26.258163 61.836576 21.747010 0.000000 0.000000 0.000000 
